# xmcd
#
# Track frame offsets:
#	150
#	18308
#	32299
#	48090
#	60858
#	78860
#	95724
#
# Disc length: 1498 seconds
#
# Revision: 0
# Processed by: cddbd v1.5.2PL0 Copyright (c) Steve Scherf et al.
# Submitted via: dBpowerAMP V4.0
#
DISCID=3f05d807
DTITLE=Karmina - Car Train Ship Plan
DYEAR=1900
DGENRE=Blues
TTITLE0=Go to Paris
TTITLE1=Monsters
TTITLE2=Guilty
TTITLE3=Convinced
TTITLE4=Let go of me
TTITLE5=Marching now
TTITLE6=Because we can
EXTD=
EXTT0=
EXTT1=
EXTT2=
EXTT3=
EXTT4=
EXTT5=
EXTT6=
PLAYORDER=
